<?xml version="1.0" standalone="no"?>
<!DOCTYPE svg PUBLIC "-//W3C//DTD SVG 20010904//EN"
 "http://www.w3.org/TR/2001/REC-SVG-20010904/DTD/svg10.dtd">
<svg version="1.0" xmlns="http://www.w3.org/2000/svg"
 width="1024.000000pt" height="1024.000000pt" viewBox="0 0 1024.000000 1024.000000"
 preserveAspectRatio="xMidYMid meet">

<g transform="translate(0.000000,1024.000000) scale(0.100000,-0.100000)"
fill="#000000" stroke="none">
<path d="M4905 8994 c-621 -27 -1281 -216 -1805 -517 -503 -289 -936 -694
-1260 -1177 -406 -606 -623 -1270 -661 -2018 -26 -501 42 -963 215 -1469 241
-702 725 -1366 1332 -1825 463 -350 1012 -598 1578 -713 286 -58 560 -80 906
-72 365 8 603 41 940 132 1195 321 2200 1244 2627 2410 240 658 304 1380 183
2065 -121 680 -433 1334 -891 1865 -329 381 -763 711 -1224 928 -439 206 -856
323 -1330 371 -146 15 -471 26 -610 20z m415 -254 c447 -33 798 -111 1180
-265 771 -309 1389 -841 1782 -1535 185 -325 293 -594 383 -945 146 -576 150
-1122 11 -1730 -69 -306 -216 -680 -374 -955 -263 -456 -582 -815 -1017 -1142
-450 -338 -938 -550 -1520 -662 -638 -121 -1323 -65 -1924 160 -656 246 -1188
628 -1610 1157 -248 312 -416 599 -548 937 -178 456 -253 857 -253 1355 0 418
51 749 175 1135 257 801 829 1529 1535 1952 666 400 1445 592 2180 538z"/>
<path d="M2665 6444 c-507 -253 -546 -276 -526 -312 4 -7 185 -104 402 -214
217 -110 441 -224 499 -255 144 -76 172 -85 213 -70 18 7 88 42 157 78 184 98
650 339 655 339 3 0 5 -69 5 -153 0 -151 0 -154 -25 -177 -24 -23 -25 -27 -25
-163 l0 -139 29 -29 c24 -23 38 -29 74 -29 38 0 49 5 71 31 25 30 26 35 26
165 l0 135 -28 27 -28 27 3 140 c1 77 3 155 3 172 0 29 6 36 50 58 61 31 90
58 90 85 0 16 -32 35 -162 97 -90 43 -328 160 -531 260 -287 143 -376 183
-405 182 -28 0 -166 -65 -547 -255z"/>
<path d="M4989 5987 c-108 -40 -160 -102 -167 -197 -10 -139 58 -213 238 -257
116 -28 170 -66 170 -118 0 -63 -56 -105 -140 -105 -28 0 -64 7 -80 15 -30 15
-60 61 -60 90 0 12 -14 15 -75 15 l-75 0 0 -27 c0 -37 41 -122 71 -150 51 -47
118 -68 214 -68 112 0 160 14 218 65 57 51 82 117 74 197 -11 109 -71 161
-237 209 -147 41 -170 58 -170 123 0 67 83 110 170 88 47 -12 68 -32 82 -79
l11 -38 68 0 c37 0 70 3 72 8 3 4 -1 28 -8 54 -31 120 -113 179 -260 185 -51
2 -93 -2 -116 -10z"/>
<path d="M6080 5585 l0 -395 70 0 70 0 0 93 c0 87 2 96 28 130 15 20 30 36 34
37 3 0 39 -58 80 -130 l73 -130 88 0 88 0 -12 23 c-7 12 -54 91 -106 176 l-93
154 39 46 c21 25 49 55 61 66 12 11 40 41 62 68 l40 47 -89 -1 -88 0 -100
-119 -100 -118 -3 224 -2 224 -70 0 -70 0 0 -395z"/>
<path d="M7730 5585 l0 -395 69 0 69 0 4 193 c3 182 4 194 26 224 30 42 88 61
132 43 54 -23 60 -47 60 -265 l0 -195 76 0 76 0 -4 218 c-3 208 -4 219 -28
267 -55 111 -192 138 -295 59 l-45 -34 0 140 0 140 -70 0 -70 0 0 -395z"/>
<path d="M2530 5566 c0 -175 3 -236 13 -243 6 -5 41 -20 77 -33 170 -61 366
-177 504 -299 38 -34 75 -61 83 -61 7 0 32 17 56 38 86 77 144 121 232 174
118 72 151 89 265 132 52 20 102 40 110 45 13 7 15 47 18 245 1 130 0 236 -2
236 -2 0 -149 -74 -326 -165 -177 -91 -330 -165 -341 -165 -10 0 -168 74 -349
165 -181 91 -332 165 -335 165 -3 0 -5 -105 -5 -234z"/>
<path d="M6805 5771 c-78 -19 -124 -63 -167 -157 -18 -39 -22 -67 -22 -139 0
-134 43 -217 139 -268 32 -17 58 -22 125 -22 115 0 171 27 218 105 44 75 43
80 -25 80 -52 0 -60 -3 -94 -36 -82 -80 -202 -40 -223 74 l-5 32 196 0 196 0
-6 69 c-8 98 -25 146 -69 196 -57 65 -161 90 -263 66z m143 -117 c26 -18 52
-65 52 -94 0 -19 -6 -20 -120 -20 -103 0 -120 2 -120 16 0 29 30 79 58 96 34
22 101 23 130 2z"/>
<path d="M7345 5771 c-16 -4 -40 -13 -51 -19 -31 -17 -83 -78 -90 -108 -12
-45 3 -104 33 -136 38 -40 65 -53 164 -78 46 -12 92 -29 102 -37 43 -39 -3
-103 -74 -103 -52 0 -86 17 -101 52 -12 26 -16 28 -75 28 -34 0 -64 -4 -68
-10 -8 -13 21 -80 48 -108 46 -49 95 -66 192 -66 74 0 98 4 132 22 62 32 93
83 93 152 0 99 -49 144 -189 176 -77 18 -131 46 -131 70 0 30 21 53 58 65 54
16 110 -8 118 -51 6 -30 7 -30 70 -30 60 0 64 1 64 23 0 12 -10 43 -22 67 -17
34 -35 51 -71 69 -51 25 -149 36 -202 22z"/>
<path d="M5467 5553 c2 -120 7 -234 13 -253 34 -123 219 -160 315 -64 l35 35
0 -41 0 -40 65 0 65 0 0 290 0 290 -70 0 -70 0 0 -191 c0 -120 -4 -198 -11
-212 -31 -61 -115 -77 -166 -33 l-28 24 -3 206 -3 206 -72 0 -72 0 2 -217z"/>
<path d="M2032 5218 c-14 -14 -17 -914 -3 -936 4 -7 65 -24 134 -38 336 -65
658 -232 932 -483 l50 -46 3 458 2 457 -24 48 c-69 134 -314 323 -552 425
-179 77 -510 147 -542 115z"/>
<path d="M4290 5220 c-153 -15 -364 -73 -509 -141 -191 -89 -410 -267 -480
-389 l-31 -55 0 -470 0 -469 53 50 c161 157 376 300 587 391 117 51 200 76
354 107 65 13 123 30 127 38 5 7 9 216 9 465 0 397 -2 453 -16 467 -8 9 -16
15 -17 15 -1 -1 -36 -5 -77 -9z"/>
<path d="M5570 4833 c-1 -95 -3 -115 -13 -102 -24 32 -78 51 -129 47 -109 -11
-178 -118 -164 -252 11 -111 61 -178 147 -197 49 -11 108 3 134 31 24 27 35
25 35 -5 0 -24 3 -25 56 -25 l57 0 -7 31 c-3 17 -6 157 -6 310 l0 279 -55 0
-55 0 0 -117z m-30 -178 c21 -21 25 -36 28 -100 4 -72 3 -75 -26 -105 -32 -32
-76 -39 -113 -20 -46 25 -67 131 -40 199 27 63 101 76 151 26z"/>
<path d="M7412 4927 c-12 -13 -22 -32 -22 -44 0 -57 93 -72 119 -19 12 25 11
31 -6 55 -27 35 -63 38 -91 8z"/>
<path d="M4830 4635 l0 -305 190 0 190 0 0 55 0 55 -135 0 -135 0 0 75 0 75
125 0 125 0 0 50 0 50 -125 0 -125 0 0 70 0 70 130 0 130 0 0 55 0 55 -185 0
-185 0 0 -305z"/>
<path d="M1828 4888 c-14 -12 -17 -63 -20 -443 -1 -236 0 -435 5 -442 4 -6 42
-14 85 -17 447 -36 829 -186 1147 -452 103 -86 133 -104 173 -104 45 0 60 9
177 107 55 47 140 112 189 145 238 159 567 270 885 297 62 6 119 16 127 22 12
9 14 87 14 440 0 375 -2 429 -16 443 -18 19 -45 21 -62 4 -9 -9 -12 -96 -12
-330 0 -254 -3 -326 -14 -353 -16 -38 -15 -38 -161 -60 -396 -61 -724 -220
-1043 -507 -80 -72 -89 -72 -174 5 -303 270 -652 440 -1024 497 -164 26 -181
32 -194 66 -6 14 -10 160 -10 343 0 295 -1 319 -18 334 -22 20 -33 21 -54 5z"/>
<path d="M7130 4826 c0 -54 0 -55 -32 -58 -31 -3 -33 -5 -33 -43 0 -38 2 -40
33 -43 l32 -3 0 -135 c0 -153 9 -183 62 -205 30 -13 122 -18 132 -8 2 2 6 22
8 44 3 39 2 40 -29 41 -58 2 -63 13 -63 145 l0 118 47 3 46 3 0 40 0 40 -46 3
-47 3 0 55 0 54 -55 0 -55 0 0 -54z"/>
<path d="M6345 4769 c-90 -26 -149 -156 -125 -273 20 -99 79 -158 167 -169
106 -14 198 39 219 126 6 27 5 27 -41 27 -40 0 -51 -5 -79 -35 -40 -42 -73
-45 -114 -10 -38 31 -53 94 -41 162 19 102 120 128 164 43 14 -27 20 -30 65
-30 54 0 59 6 39 57 -14 38 -57 83 -96 99 -36 15 -112 17 -158 3z"/>
<path d="M6750 4758 c-48 -25 -75 -57 -86 -100 l-6 -28 56 0 c49 0 56 2 56 20
0 21 45 50 78 50 29 0 62 -37 62 -70 0 -31 -2 -32 -105 -45 -103 -14 -155 -61
-155 -142 0 -106 133 -156 235 -88 l34 24 3 -22 c3 -19 10 -22 51 -25 l47 -3
0 174 c0 164 -1 176 -23 208 -46 70 -159 91 -247 47z m160 -263 c0 -51 -36
-85 -89 -85 -32 0 -44 5 -56 24 -28 42 -1 69 90 89 49 11 55 8 55 -28z"/>
<path d="M7711 4769 c-49 -20 -84 -54 -108 -106 -21 -46 -24 -66 -21 -126 5
-93 29 -141 87 -178 39 -25 55 -29 115 -29 55 0 80 5 111 23 152 86 135 344
-27 411 -41 18 -120 20 -157 5z m137 -108 c44 -45 54 -112 26 -181 -29 -72
-104 -89 -155 -34 -32 34 -40 142 -14 190 32 60 96 71 143 25z"/>
<path d="M8223 4761 c-17 -11 -36 -28 -42 -38 -9 -15 -10 -13 -11 15 l0 32
-55 0 -55 0 0 -220 0 -220 55 0 55 0 0 151 0 151 29 29 c30 29 47 34 89 23 42
-12 52 -50 52 -209 l0 -145 56 0 56 0 -4 178 c-2 151 -6 182 -21 205 -42 65
-139 87 -204 48z"/>
<path d="M5760 4616 c0 -182 4 -208 40 -245 52 -56 161 -61 216 -10 24 22 28
20 25 -13 -2 -15 6 -18 53 -18 l56 0 0 220 0 220 -55 0 -55 0 0 -150 c0 -147
-1 -152 -25 -175 -30 -31 -83 -33 -116 -6 -23 18 -24 25 -27 175 l-3 156 -55
0 -54 0 0 -154z"/>
<path d="M7400 4550 l0 -220 55 0 55 0 0 220 0 220 -55 0 -55 0 0 -220z"/>
</g>
</svg>
